<svg width="225" height="116" viewBox="0 0 225 116" fill="none" xmlns="http://www.w3.org/2000/svg">
<g clip-path="url(#clip0_9_922)">
<path d="M14.5934 115.646C14.5934 115.646 -11.6165 87.6597 6.21483 55.0617C19.9719 29.9141 53.2492 34.395 70.3242 45.032C77.5968 49.5597 93.2223 41.2537 113.039 16.0242C136.045 -13.2654 225.11 4.60501 209.727 60.5668C202.283 87.6479 232.381 88.6323 217.045 115.703L14.5934 115.646Z" fill="#EBF3FA"/>
<path d="M198.728 116H132.237C129.041 116 125.975 114.725 123.715 112.455C121.455 110.185 120.185 107.106 120.185 103.895V46.0765C120.189 37.1327 122.814 28.3879 127.733 20.933C132.653 13.4781 139.649 7.64315 147.849 4.15613C152.668 2.11007 151.514 0.869632 156.736 0.583137C157.573 0.53786 164.638 0.577673 165.484 0.577673C171.434 0.573465 177.327 1.74747 182.824 4.03254C188.322 6.31761 193.318 9.6689 197.525 13.8947C201.732 18.1206 205.068 23.138 207.343 28.6601C209.618 34.1821 210.787 40.1004 210.782 46.0765V103.897C210.782 105.487 210.47 107.061 209.864 108.529C209.258 109.998 208.37 111.332 207.251 112.456C206.132 113.58 204.803 114.472 203.34 115.08C201.878 115.688 200.311 116 198.728 116ZM134.341 48.4863H196.629V46.0765C196.629 28.8244 182.656 14.7963 165.484 14.7963C148.312 14.7963 134.341 28.8244 134.341 46.0765V48.4863Z" fill="#5A5A5A"/>
<path d="M193.126 115.422H126.633C123.436 115.422 120.371 114.146 118.111 111.876C115.85 109.606 114.581 106.527 114.581 103.317V45.4965C114.556 39.5059 115.709 33.5694 117.975 28.0276C120.24 22.4859 123.573 17.4481 127.782 13.2033C131.991 8.95851 136.993 5.59034 142.501 3.29208C148.009 0.993834 153.915 -0.18924 159.879 -0.18924C165.844 -0.18924 171.749 0.993834 177.258 3.29208C182.766 5.59034 187.768 8.95851 191.976 13.2033C196.185 17.4481 199.518 22.4859 201.783 28.0276C204.049 33.5694 205.202 39.5059 205.177 45.4965V103.317C205.177 104.907 204.866 106.481 204.26 107.949C203.654 109.418 202.767 110.752 201.648 111.876C200.528 113 199.2 113.892 197.738 114.5C196.276 115.108 194.708 115.422 193.126 115.422ZM128.736 47.9079H191.022V45.4965C191.022 28.249 177.051 14.2178 159.879 14.2178C142.706 14.2178 128.736 28.249 128.736 45.4965V47.9079Z" fill="black"/>
<path d="M165.484 70.5675C165.486 69.2181 165.002 67.9134 164.123 66.8931C163.346 65.7346 161.738 64.9415 159.879 64.9415C158.02 64.9415 156.412 65.7377 155.635 66.8931C155.028 67.5997 154.606 68.4468 154.406 69.3581C154.206 70.2695 154.234 71.2165 154.489 72.1139C154.744 73.0113 155.217 73.8309 155.866 74.4991C156.515 75.1672 157.318 75.6629 158.205 75.9415V84.4676C158.205 85.1554 158.955 85.7166 159.879 85.7166C160.803 85.7166 161.553 85.1593 161.553 84.4676V75.9415C162.693 75.5831 163.689 74.8685 164.396 73.9019C165.103 72.9352 165.484 71.767 165.484 70.5675Z" fill="#5A5A5A"/>
<path d="M85.3815 63.3653C85.2751 64.0882 84.4535 64.9266 83.5768 65.5511C82.6332 66.2264 82.2555 66.9196 81.9205 67.2685C81.7962 67.4106 81.72 67.4887 81.72 67.4887L80.7096 66.3123C80.7269 66.2994 80.7426 66.2845 80.7562 66.2678C80.9816 66.0211 81.5529 65.4091 81.9337 64.7119C82.7685 63.1764 83.9351 62.95 83.9351 62.95C83.9351 62.95 85.0543 63.1148 85.3815 63.3653Z" fill="#FFB27D"/>
<path d="M33.3449 78.1288L34.0258 78.6838C34.0258 78.6838 35.8911 78.0133 36.3077 80.2358C36.3077 80.2358 36.4197 81.1835 35.8227 81.185C35.2258 81.1866 35.4714 81.0812 34.6258 81.107C33.7802 81.1327 33.0783 80.6839 32.9547 79.9945L32.5498 79.4106L33.3449 78.1288Z" fill="#EA8E50"/>
<path d="M33.2672 79.3209C33.8113 78.751 33.767 78.3302 33.767 78.3302C33.767 78.3302 27.4776 73.1585 26.8395 72.7369C26.405 72.4497 22.0207 68.2334 19.6112 65.8111C18.45 64.6464 17.2072 65.0484 15.6854 65.4871L14.4317 65.8478C12.9185 66.2842 12.5252 68.4099 13.7664 69.4434C17.264 72.3529 23.0816 75.6253 24.1705 76.3131C26.8729 78.0203 32.1628 80.0492 32.1628 80.0492C32.5753 79.8823 32.9507 79.6347 33.2672 79.3209Z" fill="#992525"/>
<path d="M40.4449 111.094C40.4449 111.094 41.9714 112.243 44.3101 111.636C44.3101 111.636 46.1957 111.205 46.6092 112.149C46.6092 112.149 43.7171 113.625 42.9849 114.028C42.4339 114.333 41.858 114.809 41.4515 115.183C41.375 115.253 41.2853 115.306 41.1878 115.339C41.0902 115.373 40.9869 115.386 40.8841 115.378C40.7813 115.37 40.6813 115.341 40.59 115.293C40.4987 115.245 40.4182 115.179 40.3532 115.098C40.2258 114.942 40.0804 114.754 39.9211 114.537C39.475 113.931 38.4358 111.97 38.4358 111.97L40.4449 111.094Z" fill="#233862"/>
<path d="M41.338 110.511C41.338 110.511 40.4092 112.664 38.264 112.268C38.264 112.268 33.8859 108.636 30.8803 104.864C29.9126 103.639 29.0802 102.4 28.5913 101.268C26.6001 96.637 21.2255 89.7307 17.808 86.2303L26.3576 83.1241C26.3576 83.1241 29.0958 88.6573 32.7394 95.4528C35.3665 100.347 38.4622 105.899 41.338 110.511Z" fill="black"/>
<path d="M32.7402 95.4496L30.8857 104.864C29.9126 103.639 29.0802 102.4 28.5913 101.268C26.6001 96.637 21.2255 89.7307 17.808 86.2303L26.3576 83.1241C26.3576 83.1241 29.0965 88.6542 32.7402 95.4496Z" fill="#323234"/>
<path d="M25.7521 112.343C25.7521 112.343 25.6588 114.061 27.7317 114.29C27.7317 114.29 28.9162 114.297 28.9201 115.39L22.895 115.409C22.895 115.409 22.7201 114.968 22.6773 114.023C22.6447 113.298 23.3768 111.402 23.3768 111.402L25.7521 112.343Z" fill="#233862"/>
<path d="M23.5541 83.121C23.5541 83.121 27.3626 87.3247 29.7805 94.897C31.0964 99.0172 27.3711 109.376 26.6429 112.976C26.6429 112.976 24.1433 113.189 22.4341 112.525C22.4341 112.525 22.3043 105.091 23.3039 99.3614C23.8635 96.1553 18.2891 92.5035 15.8533 86.7096C14.1962 82.7682 16.2124 82.8345 18.6894 82.7401L23.5541 83.121Z" fill="black"/>
<path d="M19.1573 64.3677C17.0386 65.5699 12.7008 64.4614 12.7008 64.4614C12.7008 64.4614 14.462 62.4387 13.6615 59.1803L15.3255 60.0289L17.1132 60.9407C17.2077 61.473 17.2731 62.0101 17.309 62.5496C17.33 62.8158 17.3479 63.1132 17.3603 63.4379C18.0109 63.6349 18.62 63.95 19.1573 64.3677Z" fill="#FFB07B"/>
<path d="M26.928 82.904C26.928 83.2779 26.499 83.4574 26.4073 83.4754C25.5523 83.6315 23.1662 84.5683 21.0164 84.7783C19.2062 84.9688 17.5258 84.7877 15.6799 84.4153C15.4351 84.3661 14.8607 84.2108 14.8203 83.9758C14.7698 83.719 7.69847 69.498 13.1951 63.3895C13.3241 63.2459 14.4091 63.5043 15.4016 63.7408C16.2382 63.9392 17.1157 63.8671 17.909 63.5347L18.8417 64.0265C19.9842 64.6659 22.1465 66.9383 22.3991 68.7213C22.5281 69.6284 23.0442 70.2998 23.1934 71.0968C23.2486 71.3919 23.3053 71.6807 23.3636 71.961C23.4761 72.5121 23.5919 73.0367 23.7111 73.5347C24.0344 74.8837 24.3756 76.0445 24.7114 77.0476C25.0673 78.1124 25.4171 78.9992 25.7303 79.7393C26.1352 80.7002 26.4772 81.4184 26.6917 81.968C26.841 82.3544 26.928 82.6581 26.928 82.904Z" fill="#BC3F3F"/>
<path d="M26.6902 81.9672C16.709 77.2436 13.2518 68.1741 13.2518 68.1741C13.2518 68.1741 21.3615 71.1788 23.3621 71.961C23.4745 72.5121 23.5903 73.0367 23.7095 73.5347C24.0328 74.8837 24.3741 76.0445 24.7098 77.0476C25.0658 78.1124 25.4155 78.9992 25.7288 79.7393C26.1337 80.6994 26.4757 81.4176 26.6902 81.9672Z" fill="#992525"/>
<path d="M39.3522 79.637H33.8416C31.3002 79.6341 28.8638 78.6188 27.0667 76.8139C25.2697 75.009 24.2589 72.5619 24.256 70.0094V51.9766C24.2587 49.424 25.2694 46.9767 27.0665 45.1718C28.8636 43.3668 31.3002 42.3516 33.8416 42.3489H39.3522C41.8937 42.3516 44.3302 43.3668 46.1273 45.1718C47.9244 46.9767 48.9352 49.424 48.9378 51.9766V70.0094C48.935 72.5619 47.9241 75.009 46.1271 76.8139C44.3301 78.6188 41.8936 79.6341 39.3522 79.637ZM33.8416 48.0351C32.8013 48.0364 31.8039 48.452 31.0684 49.191C30.3328 49.9299 29.9192 50.9317 29.9181 51.9766V70.0094C29.9194 71.0541 30.3331 72.0557 31.0687 72.7945C31.8042 73.5332 32.8014 73.9488 33.8416 73.95H39.3522C40.3924 73.9488 41.3896 73.5332 42.1252 72.7945C42.8607 72.0557 43.2744 71.0541 43.2757 70.0094V51.9766C43.2747 50.9317 42.861 49.9299 42.1254 49.191C41.3899 48.452 40.3925 48.0364 39.3522 48.0351H33.8416Z" fill="black"/>
<path d="M97.1433 64.3146H46.6091V57.6714H97.1433C98.0205 57.6714 98.8616 58.0213 99.4818 58.6442C100.102 59.2672 100.45 60.112 100.45 60.993C100.45 61.8739 100.102 62.7188 99.4818 63.3417C98.8616 63.9646 98.0205 64.3146 97.1433 64.3146Z" fill="black"/>
<path d="M90.8003 62.9766H96.1081V75.9953C96.1081 76.3454 96.0394 76.6921 95.906 77.0155C95.7726 77.3389 95.5771 77.6328 95.3307 77.8804C95.0842 78.1279 94.7916 78.3243 94.4696 78.4583C94.1475 78.5922 93.8024 78.6612 93.4538 78.6612C92.7499 78.6612 92.0747 78.3803 91.577 77.8804C91.0792 77.3804 90.7996 76.7023 90.7996 75.9953V62.9766H90.8003Z" fill="black"/>
<path d="M32.5296 79.2295L33.3923 79.5472C33.3923 79.5472 35.1194 78.3208 36.195 80.3162C36.195 80.3162 36.5837 81.1874 35.9681 81.3763C35.3525 81.5652 35.5795 81.388 34.7113 81.6776C33.8431 81.9672 32.9928 81.7557 32.6664 81.1374L32.0796 80.7049L32.5296 79.2295Z" fill="#FFB07B"/>
<path d="M33.2399 80.4551C33.5586 79.619 33.7063 79.2404 33.7063 79.2404C33.7063 79.2404 27.1892 73.9055 26.5254 73.4473C26.0723 73.135 21.5674 69.7533 19.371 67.1179C18.8364 66.4762 18.1383 65.9925 17.3513 65.7185C16.5643 65.4445 15.7179 65.3904 14.9026 65.5621L13.5339 65.8501C11.8823 66.1983 11.3452 68.299 12.6269 69.402C16.2364 72.5098 22.3237 76.1155 23.4584 76.8642C26.2759 78.7252 32.5086 81.3333 32.5086 81.3333C32.5086 81.3333 32.9897 81.1116 33.2399 80.4551Z" fill="#BC3F3F"/>
<path d="M17.3082 62.548C15.2245 62.6659 13.8698 60.9375 13.8698 60.9375C13.8698 60.9375 14.8118 60.4137 15.3255 60.0273L17.1132 60.9391C17.2074 61.4714 17.2725 62.0085 17.3082 62.548Z" fill="#EA8E50"/>
<path d="M18.1966 60.4013C18.1966 60.4013 15.0387 62.6768 13.6583 60.6799C12.278 58.6831 10.938 57.6354 12.8974 56.0952C14.8568 54.555 15.7779 55.0429 16.3996 55.5972C17.0214 56.1514 18.9824 59.7572 18.1966 60.4013Z" fill="#FFB07B"/>
<path d="M16.7338 53.7939C16.6696 53.3435 16.5457 52.9038 16.3654 52.4863C16.3654 52.4863 16.1672 53.3107 14.6672 53.1967C13.1671 53.0827 10.7903 53.345 9.99754 55.0617C9.94702 55.1709 9.90272 55.2834 9.86231 55.3989C9.71929 55.0179 9.68432 54.4473 9.68432 54.4473C9.39907 55.1866 9.68432 56.1108 9.68432 56.1108L9.67266 56.1889C9.34156 56.4699 9.06409 57.3443 9.06409 57.3443C9.16357 57.0999 9.40762 56.9414 9.62447 56.8431C9.61748 58.1788 10.1569 59.4848 11.1012 59.8735C12.4862 60.4426 12.4746 60.0086 13.8674 60.936C13.8674 60.936 14.2405 60.4676 13.9855 60.1553C13.7306 59.8431 12.7692 59.388 13.307 58.9336C13.8449 58.4793 14.0423 58.9898 14.2397 58.6776C14.4371 58.3653 13.4477 57.4551 14.7208 56.6026C15.9939 55.7502 16.8465 54.5613 16.7338 53.7939Z" fill="#233862"/>
<path d="M72.0387 113.611L70.8729 114.047C70.8729 114.047 65.8209 107.008 65.1991 100.815C65.0879 99.7096 65.1214 98.6386 65.3654 97.6495C65.3654 97.6495 65.3157 97.3661 65.2294 96.865C65.1897 96.6308 65.14 96.3505 65.084 96.0273C64.92 95.0828 64.6954 93.7892 64.4351 92.3162C63.8405 88.9266 63.0702 84.5941 62.4725 81.4091L62.7834 81.3084L66.1745 80.2092L66.874 77.9735L69.3993 77.3052C69.3993 77.3052 69.9635 78.4137 70.4679 83.6495C70.5612 84.3365 70.6452 85.0937 70.7089 85.9134C70.9416 88.9708 70.8611 92.0442 70.4687 95.0851C70.3527 95.9948 70.205 96.9331 70.0257 97.9001C69.8928 98.6073 69.8703 99.5722 69.9285 100.679C70.1866 105.744 72.0387 113.611 72.0387 113.611Z" fill="#BC3F3F"/>
<path d="M70.7128 85.9157L65.2294 96.865C65.1897 96.6308 65.14 96.3505 65.084 96.0273C64.92 95.0828 64.6954 93.7892 64.4351 92.3162C63.8405 88.9266 63.0702 84.5941 62.4725 81.4091L62.7834 81.3084L66.1745 80.2092L66.874 77.9735L69.3993 77.3052C69.3993 77.3052 69.9635 78.4137 70.4679 83.6495C70.562 84.3365 70.649 85.0937 70.7128 85.9157Z" fill="#992525"/>
<path d="M68.3003 78.7073L68.1736 77.6144C66.0471 78.1819 60.3639 76.0289 60.3639 76.0289C60.3639 76.0289 58.3042 77.8478 58.5763 82.2084C58.7076 84.3364 58.9493 93.3802 59.1981 96.0562C59.289 97.0265 59.3691 97.7166 59.4017 97.9922C59.4072 98.0749 59.3856 98.1571 59.3403 98.2264C58.9735 98.8528 58.6614 99.5099 58.4076 100.19C55.9345 106.808 58.7885 114.957 58.7885 114.957L59.5284 114.657C59.5284 114.657 61.1575 105.596 62.4788 101.59C62.7026 100.91 62.9171 100.376 63.1138 100.057C63.6874 99.1272 64.2198 97.6081 64.7032 95.8009C65.6165 92.3848 66.351 87.9399 66.8406 84.5097C66.909 84.5129 68.3003 78.7073 68.3003 78.7073Z" fill="#BC3F3F"/>
<path d="M81.2761 65.1428C81.9189 65.3997 82.5477 65.9063 83.1695 66.5371C83.1695 66.5371 79.5421 72.8915 77.4545 73.815C76.308 74.3224 72.7219 70.4746 71.9812 68.3177C71.8001 67.7908 72.4685 66.0281 72.2493 65.6573C71.9972 65.2349 71.8316 64.7662 71.762 64.2787C71.745 64.2156 71.7374 64.1504 71.7395 64.0851C71.6943 63.7167 71.7164 63.3432 71.8047 62.9828C71.8879 62.7689 72.1226 62.6768 72.4716 62.6823H72.5944C74.473 63.7931 76.9415 69.2451 77.348 69.3731C78.412 68.0219 81.2761 65.1428 81.2761 65.1428Z" fill="#2C3A64"/>
<path d="M72.3637 65.4481C71.696 65.7604 70.8869 65.9711 69.9146 66.025C66.2577 66.2256 65.4276 63.0063 65.2769 60.8728C65.6797 60.7337 66.1069 60.6806 66.5313 60.7166C66.7909 60.7307 67.0614 60.758 67.2844 60.7853C67.7321 60.5511 68.535 59.4106 68.9998 57.5067L69.1553 57.58L71.7932 58.8291C71.7932 58.8291 71.5134 59.6878 71.3066 60.5168C71.145 61.1624 71.0292 61.7869 71.1255 61.961C71.3338 62.0461 71.4582 62.0992 71.4582 62.0992C71.8658 63.1839 72.169 64.3053 72.3637 65.4481Z" fill="#FFB27D"/>
<path d="M70.1298 50.5488C70.1244 50.3927 70.0016 48.6753 67.3994 48.5839C67.3994 48.5839 68.6795 48.7401 68.9002 49.3021C68.9002 49.3021 68.029 48.6042 67.3193 48.829C66.6097 49.0539 66.1931 50.3021 66.1892 50.7127C66.1854 51.1233 66.5779 52.4465 67.0294 52.5597C67.209 52.5962 67.394 52.5962 67.5735 52.5597C67.4453 52.7611 67.3285 52.9696 67.2237 53.1842C66.1854 55.3247 67.2564 57.4169 68.1354 57.1858C68.6989 57.0375 68.8583 58.0039 68.8583 58.0039L74.3354 53.5504C74.3354 53.5504 72.3255 49.3724 70.1298 50.5488Z" fill="#BC3F3F"/>
<path d="M71.7954 58.8173C71.7954 58.8173 71.5156 59.676 71.3089 60.5051C69.766 60.0726 69.2982 58.4442 69.1575 57.5714L71.7954 58.8173Z" fill="#ED985F"/>
<path d="M72.1203 59.7299C72.1203 59.7299 68.4308 58.8712 68.9982 56.5722C69.5655 54.2732 69.4707 52.6136 71.8506 53.064C74.2305 53.5144 74.4699 54.5051 74.4668 55.3193C74.4637 56.1335 73.095 59.8938 72.1203 59.7299Z" fill="#FFB27D"/>
<path d="M74.6743 54.0133C74.2772 53.1796 73.8108 53.2241 73.5186 53.3724C71.7846 51.7611 70.0848 53.0773 70.0848 53.0773C69.6725 54.0417 68.9395 54.8322 68.0111 55.3138C68.0111 55.3138 68.5785 55.897 70.2208 55.8845C70.7229 55.8845 71.2312 55.6503 71.6866 55.3302C71.1132 55.896 70.4658 56.3808 69.7622 56.7713C71.8188 56.3763 73.1984 53.9844 73.3375 53.7268C73.5124 53.9852 73.845 54.5355 73.873 55C73.9111 55.6308 73.695 56.8564 74.0549 56.9032C74.0595 56.9071 75.2689 55.2631 74.6743 54.0133Z" fill="#BC3F3F"/>
<path d="M63.1006 115.573H57.2387C57.2387 115.573 57.098 114.676 57.4042 113.996C57.6972 113.343 58.1566 113.046 58.0462 112.256C58.4185 112.641 59.0255 113.073 59.8727 112.959C59.9761 113.128 60.5427 114.032 60.8893 114.286C61.2725 114.558 62.9793 114.461 63.1006 115.573Z" fill="#233862"/>
<path d="M75.6778 115.573H69.8182C69.8182 115.573 69.5998 114.636 69.9838 113.996C70.325 113.431 70.1944 113.109 69.9418 112.642C70.2531 112.776 70.5902 112.84 70.9289 112.828C71.2203 112.811 71.5297 112.678 71.8002 112.52C72.052 112.809 73.1323 114.038 73.4697 114.282C73.8521 114.558 75.5596 114.461 75.6778 115.573Z" fill="#233862"/>
<path d="M83.6475 64.3146H92.5647L92.0696 60.8408L84.1068 61.1624L83.6475 64.3146Z" fill="#F99746"/>
<path d="M85.2136 57.6714C84.7978 58.0874 84.8071 59.4208 83.9304 60.0484C82.9868 60.7237 82.6091 61.4169 82.2741 61.7658C82.1505 61.9079 82.0744 61.986 82.0744 61.986L81.064 60.8095C81.0809 60.7965 81.0963 60.7816 81.1098 60.765C81.3352 60.5184 81.9073 59.9063 82.2873 59.2092C83.1221 57.6737 84.2895 57.4473 84.2895 57.4473C84.2895 57.4473 84.8856 57.4208 85.2136 57.6714Z" fill="#FFB27D"/>
<path d="M81.6835 59.8821L83.1695 61.5527C83.1695 61.5527 79.1979 65.0257 78.3686 65.7471C77.7794 66.2506 77.2229 66.6612 76.7698 66.8969C76.7251 66.9206 76.6789 66.9412 76.6314 66.9586C75.4656 67.4715 72.9474 67.4145 70.4314 67.0367C70.0832 66.9859 69.7397 66.9274 69.4039 66.8727C68.2543 66.6796 67.1202 66.4028 66.0105 66.0445C65.4959 65.8864 64.9956 65.6846 64.5151 65.4411C64.3816 65.375 64.2519 65.3015 64.1265 65.2209C62.1593 64.0367 62.2542 62.9368 62.2915 62.5425C62.3288 62.1483 62.6125 61.6261 63.2692 61.4122C64.8307 60.9032 70.0685 62.9305 70.8403 63.0773C71.3066 63.1756 72.5082 63.6042 72.9132 63.6791C73.6904 63.8181 74.3301 63.9079 74.7684 63.9133C75.0521 63.9133 75.5534 63.74 76.1589 63.4715C77.212 63.007 81.6835 59.8821 81.6835 59.8821Z" fill="#253D78"/>
<path d="M82.2671 64.9204C82.1435 64.7166 82.1311 64.3856 82.1311 64.3856C82.3029 63.943 82.6829 63.4489 82.8244 63.3482C82.9659 63.2475 83.1516 63.0102 83.1959 63.1702C83.2402 63.3302 83.028 64.1655 82.7801 64.4973C82.6494 64.6814 82.4724 64.8274 82.2671 64.9204Z" fill="#FFB27D"/>
<path d="M170.615 44.879C171.866 47.0648 173.438 47.9079 173.438 47.9079H179.98C179.98 47.9079 169.659 43.2123 170.615 44.879Z" fill="#ED7D2B"/>
<path d="M175.251 61.9009C175.421 62.0968 175.569 62.0859 175.484 62.3201C175.484 62.3201 175.446 62.4364 175.445 62.4372C175.29 62.8704 174.994 63.1741 174.396 63.6573C174.318 63.719 174.24 63.7705 174.182 63.8228C174.167 63.8368 174.061 63.8579 174.046 63.872C174.031 63.886 173.941 64.0757 173.929 64.0859C173.371 64.6026 173.485 64.4528 172.482 65.5012C171.338 66.6963 171.372 66.573 171.148 66.4645C170.958 66.3716 170.88 66.1522 171.303 65.4364L171.365 65.3326C171.422 65.2381 171.479 65.1413 171.535 65.0461C172.035 64.1873 171.906 63.7869 171.788 62.5105C171.692 61.4731 170.182 56.7166 170.182 56.7166L172.373 56.338C172.373 56.338 173.034 60.1257 173.761 60.7096C174.149 61.0219 174.585 61.0219 174.959 61.256L175.036 61.3052C175.255 61.445 175.08 61.7041 175.251 61.9009Z" fill="#FFB27D"/>
<path d="M175.639 61.7877C175.718 61.8741 175.769 61.9813 175.789 62.0964C175.808 62.2116 175.793 62.3299 175.748 62.4371C175.556 62.8696 175.053 63.3505 174.475 63.8322C174.397 63.8954 174.333 63.9532 174.273 64.007L174.227 64.0484L174.192 64.0804C173.634 64.5972 173.844 64.7158 172.841 65.7642C171.697 66.9594 170.91 66.9813 170.686 66.8728C170.497 66.7799 170.881 66.146 171.308 65.4332C172.108 65.1197 172.812 64.5991 173.347 63.9243C174.035 63.0421 174.495 61.9079 174.963 61.2506L175.041 61.2998C175.261 61.4348 175.463 61.5989 175.639 61.7877Z" fill="#BC3F3F"/>
<path d="M157.559 60.2842C157.423 60.9633 156.985 60.7728 155.908 60.5082C154.83 60.2436 155.08 60.5035 153.546 60.3326C152.013 60.1616 151.874 59.918 151.827 59.6885C151.785 59.4856 152.105 59.3482 152.915 59.2537C153.017 59.2428 153.12 59.2295 153.222 59.217C154.14 59.1015 154.812 58.5066 155.646 58.0187C156.435 57.5558 157.613 55.6714 157.613 55.6714L159.716 55.8384C159.716 55.8384 158.612 57.5215 158.186 58.2537C157.935 58.6838 157.948 59.2537 157.979 59.6932C158.001 59.929 157.607 60.0414 157.559 60.2842Z" fill="#FFB27D"/>
<path d="M155.789 60.7143C154.712 60.4496 154.968 60.7642 153.435 60.5933C151.901 60.4223 151.436 59.8485 151.39 59.6198C151.348 59.4169 152.106 59.345 152.919 59.2506L152.926 59.267C153.583 59.69 154.342 59.9268 155.122 59.9524C156.162 59.9774 157.264 59.6784 157.982 59.6901C158.009 59.9304 158.004 60.1732 157.967 60.4122C157.831 61.0921 156.867 60.9781 155.789 60.7143Z" fill="#BC3F3F"/>
<path d="M166.025 46.9071L167.991 52.2201L170.556 59.1569C171.014 59.1914 171.475 59.1492 171.92 59.032C172.534 58.854 173.241 58.3872 173.241 58.3872C173.241 58.3872 172.528 50.9383 171.198 46.6628C170.858 45.5652 170.476 44.6776 170.055 44.178C167.993 41.7315 166.025 46.9071 166.025 46.9071Z" fill="#ED7D2B"/>
<path d="M168.027 38.4692C169.315 38.0515 172.988 38.5878 176.679 39.313L177.451 38.0328L185.421 37.4083C185.421 37.4083 188.046 43.2631 186.611 46.9984C186.262 47.9079 185.12 47.9071 185.12 47.9079H178.862C174.898 47.9079 170.473 45.1709 169.901 45.0562C168.964 44.8681 168.589 46.7502 167.652 48.7252C166.716 50.7002 158.846 57.477 158.846 57.477C158.846 57.477 157.636 57.4887 157.136 57.3005C156.598 57.0984 156.401 56.8322 156.401 56.8322C156.401 56.8322 165.119 39.4098 168.027 38.4692Z" fill="#F99746"/>
<path d="M177.495 27.0086C180.332 28.5785 186.09 31.8322 186.122 31.8111C186.122 31.8111 188.238 32.612 189.438 31.8111C191.44 30.477 192.513 26.8845 188.853 23.7931C187.028 22.2514 185.732 21.8759 185.534 19.4145C185.428 18.0788 183.61 13.6706 180.59 14.0781C180.338 14.116 180.083 14.133 179.829 14.1288C179.29 14.1117 178.759 14.2496 178.296 14.5262C176.585 15.548 173.24 26.4044 177.495 27.0086Z" fill="#233862"/>
<path d="M179.874 25.6729C179.861 25.6807 181.273 26.1639 182.212 25.7447C183.099 25.3544 183.766 23.8876 183.756 23.8868C183.353 23.8681 182.91 23.5137 182.57 21.1905L182.398 21.2529L179.512 22.2959C179.512 22.2959 179.721 23.2264 179.856 24.1116C179.97 24.8556 180.031 25.5675 179.874 25.6729Z" fill="#FFB27D"/>
<path d="M179.512 22.2959C179.512 22.2959 179.721 23.2264 179.856 24.1116C181.514 23.8119 182.164 22.153 182.398 21.2529L179.512 22.2959Z" fill="#ED975D"/>
<path d="M179.082 23.2194C179.082 23.2194 183.031 22.687 182.663 20.2217C182.296 17.7564 182.557 16.0273 180.021 16.2631C177.485 16.4988 177.135 17.5121 177.059 18.3661C176.983 19.2201 178.045 23.2943 179.082 23.2194Z" fill="#FFB27D"/>
<path d="M177.199 17.0148C177.199 17.0148 179.727 19.2006 181.447 19.3794C183.167 19.5582 183.818 19.0016 183.818 19.0016C183.131 18.3847 182.579 17.6327 182.194 16.7924C182.106 16.5946 181.968 16.424 181.792 16.2982C181.617 16.1723 181.411 16.0958 181.197 16.0765C179.972 15.9696 177.645 15.9212 177.199 17.0148Z" fill="#233862"/>
<path d="M178.783 16.8189C178.783 16.8189 177.936 17.6401 177.67 18.249C177.413 18.8376 177.336 20.2435 177.541 20.8017C177.541 20.8017 176.219 18.2256 176.969 16.9766C177.761 15.6518 178.783 16.8189 178.783 16.8189Z" fill="#233862"/>
<path d="M176.548 31.516C176.667 39.5457 176.581 37.8673 177.455 38.6292C177.666 38.8127 178.258 38.9227 179.037 38.9743C181.489 39.1374 185.799 38.7323 185.962 38.2771C186.528 36.7026 186.128 36.2131 186.6 33.8033C186.65 33.5465 186.71 33.2693 186.782 32.9672C187.175 31.3115 187.559 30.7486 186.16 28.089C184.895 25.68 183.58 23.7244 183.462 23.7955C180.119 25.7861 179.854 24.1132 179.854 24.1132C179.854 24.1132 176.49 27.5995 176.548 31.516Z" fill="#BC3F3F"/>
<path d="M167.991 52.2201L170.556 59.1569C171.015 59.1914 171.475 59.1492 171.92 59.032C172.534 58.854 173.241 58.3872 173.241 58.3872C173.241 58.3872 172.528 50.9383 171.198 46.6628L167.991 52.2201Z" fill="#F99746"/>
<path d="M179.856 24.1116C179.856 24.1116 176.421 24.6971 176.017 26.1827C175.614 27.6682 173.24 36.4013 173.24 36.4013C173.24 36.4013 174.987 36.7135 175.793 35.9063C176.6 35.0991 178.598 28.388 178.598 28.388L179.856 24.1116Z" fill="#BC3F3F"/>
<path d="M179.037 38.9727C181.489 39.1358 185.799 38.7307 185.962 38.2756C186.528 36.701 186.128 36.2116 186.6 33.8017L185.418 30.4575C185.418 30.4575 185.614 34.1811 184.52 35.1608C183.427 36.1405 180.043 37.0515 179.512 37.8696C179.256 38.2639 179.087 38.6604 179.037 38.9727Z" fill="#992525"/>
<path d="M181.846 37.4114C181.846 37.4114 179.428 36.8704 179.037 37.0859C178.646 37.3013 177.694 38.0866 177.575 38.3599C177.456 38.6331 178.444 38.1522 178.765 38.0656C178.973 38.0094 179.521 38.2006 179.792 38.2912C180.933 38.6737 181.633 38.477 181.633 38.477L181.846 37.4114Z" fill="#FFB27D"/>
<path d="M183.466 23.7931C183.466 23.7931 186.713 23.9937 187.837 25.5691C189.42 27.7853 192.559 37.2326 190.76 38.4926C188.734 39.9118 181.539 38.8634 181.539 38.8634C181.539 38.8634 181.3 37.74 181.633 37.1959C181.965 36.6518 187.38 35.772 187.629 35.523C187.878 35.274 184.505 30.6292 184.505 29.8766C184.505 29.1241 183.466 23.7931 183.466 23.7931Z" fill="#BC3F3F"/>
<path d="M178.921 37.7588C178.921 37.7588 178.414 38.4153 178.248 38.4934C178.164 38.5392 178.069 38.5598 177.974 38.5527L178.316 37.9352L178.921 37.7588Z" fill="#FFB27D"/>
<path d="M179.038 37.0827L177.565 37.8009C177.594 37.8367 177.631 37.8643 177.674 37.881C177.717 37.8977 177.763 37.9029 177.809 37.8962C177.99 37.8876 178.448 37.7197 178.448 37.7197L179.038 37.0827Z" fill="#FFB27D"/>
<path d="M178.248 39.4996H166.594L163.088 30.7432H174.724L178.248 39.4996Z" fill="#163560"/>
<path d="M166.457 39.1585H181.846V39.4996H166.594L166.457 39.1585Z" fill="#11294A"/>
<path d="M169.536 35.121C169.448 34.8134 169.625 34.5636 169.931 34.5636C170.093 34.5726 170.248 34.6308 170.375 34.7304C170.503 34.8299 170.597 34.9662 170.646 35.121C170.734 35.4333 170.556 35.6784 170.25 35.6784C170.089 35.6695 169.934 35.6114 169.806 35.5118C169.679 35.4122 169.584 35.2759 169.536 35.121Z" fill="white"/>
<path d="M224.703 115.927H1.37495C1.29667 115.927 1.22154 115.896 1.16582 115.84C1.11011 115.785 1.07829 115.71 1.07727 115.632C1.07748 115.553 1.10882 115.477 1.16446 115.421C1.22009 115.365 1.29549 115.334 1.37417 115.333H224.703C224.782 115.334 224.857 115.366 224.912 115.421C224.967 115.477 224.998 115.553 224.998 115.632C224.997 115.71 224.966 115.784 224.911 115.84C224.856 115.895 224.781 115.926 224.703 115.927Z" fill="#2E3552"/>
</g>
<defs>
<clipPath id="clip0_9_922">
<rect width="225" height="116" fill="white"/>
</clipPath>
</defs>
</svg>
