<svg width="158" height="188" viewBox="0 0 158 188" fill="none" xmlns="http://www.w3.org/2000/svg">
<path d="M35.0771 84.0489C37.9571 84.0622 40.8238 84.2089 43.6371 84.8089C47.1305 85.8622 50.7038 86.7155 54.3305 87.1555C47.8772 86.5422 41.0905 86.8889 35.0771 84.0489Z" fill="#D8F0FA"/>
<path d="M40.0105 99.2222C45.0372 97.8488 50.1172 96.6355 55.2772 95.8488C53.9838 116.009 54.5572 136.249 53.0905 156.409C52.0238 162.676 52.7838 171.142 59.8638 173.476C74.1838 176.129 88.6905 177.636 103.024 180.222C100.05 182.276 96.2772 181.449 92.9038 181.649C80.4772 181.916 68.1172 179.596 56.3438 175.689C50.3705 173.636 44.8638 170.502 39.0238 168.142C39.7438 157.582 40.5038 146.876 38.9572 136.356C38.4505 133.356 37.7038 130.409 37.2772 127.396C38.8505 118.649 40.2772 109.742 39.4638 100.822C39.5972 100.422 39.8772 99.6222 40.0105 99.2222Z" fill="#D8F0FA"/>
<path d="M118.144 1.60884C123.197 0.968842 129.331 -1.71116 133.557 2.50218C137.904 6.88884 136.544 13.5155 136.277 19.0488C134.757 45.7288 135.077 72.5022 133.57 99.1822C132.824 112.569 132.664 125.982 132.331 139.382C132.211 143.222 132.144 147.062 132.024 150.902C131.651 158.556 131.504 166.235 131.157 173.889L131.117 174.809C122.171 177.915 112.611 181.862 103.024 180.222C88.6905 177.635 74.1838 176.129 59.8638 173.475C52.7838 171.142 52.0238 162.676 53.0905 156.409C53.5572 156.436 54.4905 156.489 54.9572 156.516L56.7305 156.622C59.8372 156.836 62.9305 157.156 66.0238 157.462C70.2772 158.009 74.5038 158.796 78.7438 159.502C79.1838 162.609 79.2772 165.849 80.5172 168.756C83.3305 173.276 91.7572 171.582 91.4372 165.836C92.2105 160.516 87.6905 156.849 83.1172 155.436C86.5038 154.062 90.1038 154.569 92.7038 157.209C93.4238 158.556 94.0905 159.942 94.7705 161.316C98.8772 161.742 102.971 162.182 107.037 162.782C112.851 163.702 118.717 164.169 124.57 164.862C124.864 164.889 125.451 164.969 125.744 164.996C126.704 140.849 127.69 116.689 128.157 92.5288C128.41 84.7288 128.957 76.9555 128.891 69.1555C130.064 50.2755 129.984 31.3688 130.811 12.4755C131.184 8.62218 130.331 3.91551 126.184 2.47551C122.397 2.02217 118.664 3.06218 114.957 3.63551C99.2105 6.12884 83.4105 8.36884 67.6772 10.9422C62.7305 11.0888 59.3438 15.7688 59.3038 20.4355C59.0372 27.0888 59.0638 33.7422 58.8238 40.3955C58.3838 40.3555 57.4905 40.2755 57.0505 40.2355C57.3972 33.4755 57.3972 26.6888 57.9172 19.9422C58.2905 15.2222 61.3438 10.1422 66.3038 9.28884C75.4638 7.68884 84.7172 6.59551 93.8905 5.06218C102.011 4.15551 110.024 2.51551 118.144 1.60884Z" fill="#3E2575"/>
<path d="M13.6639 50.5555C15.2905 48.1022 18.1439 48.9288 20.3439 49.9822C19.1972 52.0622 17.4639 52.5822 15.1572 51.5555C17.5172 54.5555 18.6505 58.3688 15.5039 61.3022C12.9572 61.5022 10.3705 61.1688 9.8772 58.2222C11.2239 58.2622 13.9439 58.3422 15.3039 58.3822C13.8505 56.0888 11.1439 53.1822 13.6639 50.5555Z" fill="#3E2575"/>
<path d="M26.7172 51.8888C28.8105 49.5688 32.0238 50.8888 34.6372 51.1422C34.1705 51.7688 33.2505 53.0355 32.7838 53.6622C28.0505 50.5822 23.1438 60.3822 29.0372 60.9155C28.7572 59.6622 28.1972 57.1555 27.9172 55.8888C29.1572 55.9955 31.6372 56.1955 32.8772 56.3022C32.0772 58.5955 31.9438 61.3422 30.3038 63.2222C28.0638 63.6488 25.2372 63.6488 23.6505 61.7422C22.7572 58.2488 24.2105 54.3688 26.7172 51.8888Z" fill="#3E2575"/>
<path d="M36.9172 51.0355C37.7705 51.1822 39.4772 51.4622 40.3305 51.5955C40.7172 54.6755 41.1039 57.7422 41.4905 60.8089C42.2772 58.1289 43.0239 55.4355 43.9305 52.7955C44.6639 52.6889 46.1305 52.4889 46.8639 52.3822C45.4639 56.7422 44.0505 61.0889 42.7305 65.4622C41.3172 65.3289 39.9039 65.2089 38.5039 65.0755C38.3705 62.0755 38.0239 59.0889 37.6639 56.1022C36.2772 59.2355 36.6639 64.5022 32.3172 65.0755C33.6372 60.3289 35.2239 55.6622 36.9172 51.0355Z" fill="#3E2575"/>
<path d="M53.2239 53.7289C54.0372 53.5289 55.6639 53.1289 56.4639 52.9155C55.2372 56.9422 54.0505 61.0089 53.6905 65.2222C58.6239 63.9955 58.3972 58.0622 59.8639 54.1555C60.6372 54.0489 62.2105 53.8355 62.9839 53.7289C62.4772 58.9022 60.6639 63.9155 57.3705 67.9822C54.7172 67.6089 50.5705 68.1022 50.0505 64.5022C50.6105 60.7955 51.7439 57.1689 53.2239 53.7289Z" fill="#3E2575"/>
<path d="M66.0772 54.6222C69.0772 54.9955 72.0372 55.5955 74.8238 56.7822C73.8905 59.1422 72.9838 61.5289 72.0772 63.9022C70.2772 64.2889 68.4772 64.6622 66.6772 65.0489C65.1972 66.4755 64.6372 71.3022 61.7972 68.6755C62.4772 63.7955 64.6372 59.3022 66.0772 54.6222ZM69.1838 58.0755C67.5972 58.1689 66.5438 61.3689 68.5438 61.5822C70.1572 61.4755 71.2238 58.3289 69.1838 58.0755Z" fill="#3E2575"/>
<path d="M114.957 3.63553C118.664 3.06219 122.397 2.02219 126.184 2.47553C130.331 3.91553 131.184 8.62219 130.811 12.4755C129.984 31.3689 130.064 50.2755 128.891 69.1555C128.157 66.4355 127.584 63.6889 127.184 60.9155C120.797 64.3555 114.531 68.0089 108.317 71.7155C100.664 72.5422 92.7172 75.1955 85.1305 72.7155C86.1039 69.6222 87.1705 66.5555 88.1439 63.4622C89.8105 56.8622 94.1039 50.5022 92.8905 43.5022C88.8372 43.1155 84.7972 42.5955 80.7572 42.1289C78.5172 41.9422 76.2772 41.8622 74.0372 41.7822C74.1439 41.1289 74.3572 39.8222 74.4639 39.1555C76.3572 37.8089 78.2372 35.5822 80.8105 35.9689C82.7039 36.7822 84.4639 37.8755 86.3572 38.7155C88.8372 37.4355 90.5305 35.0089 93.0239 33.7289C95.5172 33.9422 97.5172 35.7422 99.8239 36.5689C102.784 35.6889 104.464 32.2622 107.504 31.6355C109.704 32.5289 111.571 34.2089 113.891 34.7955C115.891 33.3022 117.597 31.4489 119.664 30.0355C122.811 29.0355 125.344 33.5822 128.357 32.4355C128.904 28.8222 128.704 25.1422 128.757 21.5022C128.691 16.5955 130.051 11.2755 127.944 6.66219C126.024 3.10219 121.411 4.52886 118.184 4.68886C101.997 7.23553 85.8105 9.72886 69.6105 12.1822C63.9305 12.0355 60.7172 17.7422 60.7839 22.8222C60.3705 28.7289 60.3305 34.6622 60.3572 40.5822L58.8239 40.3955C59.0639 33.7422 59.0372 27.0889 59.3039 20.4355C59.3439 15.7689 62.7305 11.0889 67.6772 10.9422C83.4105 8.36886 99.2105 6.12886 114.957 3.63553Z" fill="#E7F2DA"/>
<path d="M69.6106 12.1822C85.8106 9.72885 101.997 7.23552 118.184 4.68885C121.411 4.52885 126.024 3.10218 127.944 6.66218C130.051 11.2755 128.691 16.5955 128.757 21.5022C128.251 23.6489 127.651 25.7822 127.064 27.9155C122.997 27.0755 118.957 26.1289 114.931 25.1022C114.651 23.0889 114.397 21.0755 114.224 19.0622C115.531 16.7022 113.211 13.1289 111.077 16.1555L111.024 16.2089C107.971 16.2889 104.917 16.2222 101.864 16.3555C99.6906 16.5289 97.5039 16.7822 95.3706 17.2089L94.2106 17.5155C92.4239 17.8755 90.6106 18.1955 88.7973 18.4622C86.2639 18.7822 83.7439 18.4355 81.3573 17.5689C77.3439 16.0222 72.5573 15.6489 69.6106 12.1822Z" fill="#7DADF2"/>
<path d="M60.7839 22.8222C60.7172 17.7422 63.9305 12.0355 69.6105 12.1822C72.5572 15.6488 77.3439 16.0222 81.3572 17.5688C80.6772 18.9688 80.0105 20.3822 79.3439 21.7822C77.2505 21.3822 75.1572 20.9555 73.0639 20.5688C72.9705 21.5288 72.7839 23.4488 72.6905 24.4088C75.3439 23.7955 78.0639 23.4622 80.7972 23.4088C82.1305 22.2755 83.4639 21.1288 84.7839 19.9688C84.8239 20.8088 84.9039 22.4755 84.9439 23.3022C85.9039 23.2622 87.8239 23.1555 88.7972 23.1022C88.7972 21.5555 88.7972 20.0088 88.7972 18.4622C90.6105 18.1955 92.4239 17.8755 94.2105 17.5155C94.2239 18.4488 94.2372 20.3288 94.2372 21.2755C94.9972 20.9022 95.7705 20.5288 96.5172 20.1422C96.9439 20.3822 97.7839 20.8622 98.1972 21.1022C98.6639 19.2088 97.4505 17.2088 95.3705 17.2088C97.5039 16.7822 99.6905 16.5288 101.864 16.3555C102.357 17.9555 101.717 20.2222 103.371 21.2622C106.464 20.5955 108.797 18.3022 111.024 16.2088L111.077 16.1555C111.197 18.2222 112.251 19.1822 114.224 19.0622C114.397 21.0755 114.651 23.0889 114.931 25.1022C118.957 26.1288 122.997 27.0755 127.064 27.9155C127.651 25.7822 128.251 23.6488 128.757 21.5022C128.704 25.1422 128.904 28.8222 128.357 32.4355C125.344 33.5822 122.811 29.0355 119.664 30.0355C117.597 31.4489 115.891 33.3022 113.891 34.7955C111.571 34.2089 109.704 32.5288 107.504 31.6355C104.464 32.2622 102.784 35.6888 99.8239 36.5688C97.5172 35.7422 95.5172 33.9422 93.0239 33.7288C90.5305 35.0088 88.8372 37.4355 86.3572 38.7155C84.4639 37.8755 82.7039 36.7822 80.8105 35.9688C78.2372 35.5822 76.3572 37.8089 74.4639 39.1555C71.2505 32.6889 65.1439 28.4488 60.7839 22.8222ZM99.5839 17.9822C98.6505 19.7288 99.0239 20.8088 100.704 21.2222C101.664 19.4488 101.291 18.3688 99.5839 17.9822ZM90.8639 19.3155C89.8372 20.7955 89.7439 22.3288 90.5839 23.8889C93.1305 24.4622 94.0772 17.5955 90.8639 19.3155Z" fill="#95BEF6"/>
<path d="M101.864 16.3555C104.917 16.2222 107.971 16.2889 111.024 16.2089C108.797 18.3022 106.464 20.5955 103.371 21.2622C101.717 20.2222 102.357 17.9555 101.864 16.3555Z" fill="#C8DDF9"/>
<path d="M111.077 16.1555C113.21 13.1289 115.53 16.7022 114.224 19.0622C112.25 19.1822 111.197 18.2222 111.077 16.1555Z" fill="#C5DBF9"/>
<path d="M81.3572 17.5688C83.7438 18.4355 86.2638 18.7822 88.7972 18.4622C88.7972 20.0088 88.7972 21.5555 88.7972 23.1022C87.8238 23.1555 85.9038 23.2622 84.9438 23.3022C84.9038 22.4755 84.8238 20.8088 84.7838 19.9688C83.4638 21.1288 82.1305 22.2755 80.7972 23.4088C78.0638 23.4622 75.3438 23.7955 72.6905 24.4088C72.7838 23.4488 72.9705 21.5288 73.0638 20.5688C75.1572 20.9555 77.2505 21.3822 79.3438 21.7822C80.0105 20.3822 80.6772 18.9688 81.3572 17.5688Z" fill="#DBEAFC"/>
<path d="M62.1838 142.009C64.3038 141.969 66.4372 141.929 68.5572 141.982C73.1172 142.356 77.6505 142.902 82.2105 143.262C85.6372 143.596 89.1172 144.009 92.3705 145.236C92.4238 145.702 92.5172 146.622 92.5705 147.089L91.8105 147.609C86.5038 147.209 81.2105 146.796 75.8905 146.556C71.4238 145.969 66.9305 145.436 62.4238 145.262C62.3705 144.449 62.2505 142.822 62.1838 142.009Z" fill="#DBEAFC"/>
<path d="M94.2106 17.5155L95.3706 17.2089C97.4506 17.2089 98.6639 19.2089 98.1972 21.1022C97.7839 20.8622 96.9439 20.3822 96.5172 20.1422C95.7706 20.5289 94.9972 20.9022 94.2372 21.2755C94.2372 20.3289 94.2239 18.4489 94.2106 17.5155Z" fill="#EBF3FC"/>
<path d="M99.5839 17.9822C101.291 18.3688 101.664 19.4488 100.704 21.2222C99.0239 20.8088 98.6505 19.7288 99.5839 17.9822Z" fill="#DBE8FB"/>
<path d="M90.8639 19.3155C94.0772 17.5955 93.1305 24.4622 90.5838 23.8888C89.7438 22.3288 89.8372 20.7955 90.8639 19.3155Z" fill="#DBE9FB"/>
<path d="M60.7838 22.8222C65.1438 28.4488 71.2505 32.6888 74.4638 39.1555C74.3572 39.8222 74.1438 41.1288 74.0372 41.7822C71.4238 41.7022 68.8105 41.5688 66.2238 41.3155C64.2638 41.0888 62.3038 40.8222 60.3572 40.5822C60.3305 34.6622 60.3705 28.7288 60.7838 22.8222ZM62.8638 40.3422C65.4905 40.5288 68.1305 40.6088 70.7705 40.5822C69.2638 37.2755 64.5172 37.0355 62.8638 40.3422Z" fill="#B5D3F3"/>
<path d="M8.31724 38.3955C9.22391 36.1155 12.2506 36.8222 14.1572 36.7022C22.1972 37.3689 30.2639 37.8755 38.3039 38.6622C31.0239 39.5422 23.0772 42.5555 20.3439 49.9822C18.1439 48.9289 15.2906 48.1022 13.6639 50.5555C11.1439 53.1822 13.8506 56.0889 15.3039 58.3822C13.9439 58.3422 11.2239 58.2622 9.87724 58.2222C10.3706 61.1689 12.9572 61.5022 15.5039 61.3022C15.1039 66.7288 13.0772 71.8089 11.0772 76.7955C7.58391 71.2889 4.43724 65.5555 0.503906 60.3422C3.46391 53.1555 5.13057 45.4888 8.31724 38.3955Z" fill="#B7D8FB"/>
<path d="M62.8639 40.3422C64.5172 37.0355 69.2639 37.2755 70.7706 40.5822C68.1306 40.6088 65.4906 40.5288 62.8639 40.3422Z" fill="#E8F2E3"/>
<path d="M20.3438 49.9822C23.0771 42.5555 31.0238 39.5422 38.3038 38.6622C43.2238 38.8222 48.1705 39.0755 53.0105 40.0889C51.4505 40.4755 49.9038 40.8755 48.3571 41.2889C46.7571 45.0755 45.1838 48.8755 43.9305 52.7955C43.0238 55.4355 42.2771 58.1289 41.4905 60.8089C41.1038 57.7422 40.7172 54.6755 40.3305 51.5955C39.4772 51.4622 37.7705 51.1822 36.9171 51.0355C35.2238 55.6622 33.6371 60.3289 32.3172 65.0755C36.6638 64.5022 36.2772 59.2355 37.6638 56.1022C38.0238 59.0889 38.3705 62.0755 38.5038 65.0755C37.8371 67.1422 37.1038 69.1689 36.3971 71.2222C35.1705 70.3022 33.9438 69.4089 32.7171 68.4889C31.5171 72.8089 26.9305 74.2889 24.5838 77.7822C26.2638 79.1022 27.9438 80.4355 29.6905 81.6889L28.1838 82.0222C22.5572 80.9555 17.0371 79.3955 11.5971 77.6222L11.0771 76.7955C13.0771 71.8089 15.1038 66.7289 15.5038 61.3022C18.6505 58.3689 17.5172 54.5555 15.1572 51.5555C17.4638 52.5822 19.1971 52.0622 20.3438 49.9822ZM21.4371 50.3555C20.0638 54.2755 18.8905 58.2755 17.6771 62.2489L19.7971 62.1955C22.2905 58.4489 22.9705 53.8089 24.1572 49.5289C23.4772 49.7289 22.1171 50.1422 21.4371 50.3555ZM26.7171 51.8889C24.2105 54.3689 22.7571 58.2489 23.6505 61.7422C25.2371 63.6489 28.0638 63.6489 30.3038 63.2222C31.9438 61.3422 32.0772 58.5955 32.8772 56.3022C31.6372 56.1955 29.1572 55.9955 27.9172 55.8889C28.1972 57.1555 28.7572 59.6622 29.0372 60.9155C23.1438 60.3822 28.0505 50.5822 32.7838 53.6622C33.2505 53.0355 34.1705 51.7689 34.6372 51.1422C32.0238 50.8889 28.8105 49.5689 26.7171 51.8889Z" fill="#A0C6F8"/>
<path d="M48.3573 41.2888C49.9039 40.8755 51.4506 40.4755 53.0106 40.0888C54.0106 40.1288 56.0373 40.1955 57.0506 40.2355C57.4906 40.2755 58.3839 40.3555 58.8239 40.3955L60.3573 40.5822C62.3039 40.8222 64.2639 41.0888 66.2239 41.3155C64.7973 45.3555 63.4373 49.4488 62.9839 53.7288C62.2106 53.8355 60.6373 54.0488 59.8639 54.1555C58.3973 58.0622 58.6239 63.9955 53.6906 65.2222C54.0506 61.0088 55.2373 56.9422 56.4639 52.9155C55.6639 53.1288 54.0373 53.5288 53.2239 53.7288C51.7439 57.1688 50.6106 60.7955 50.0506 64.5022C50.5706 68.1022 54.7173 67.6088 57.3706 67.9822C56.3573 71.8355 54.9039 75.5688 52.8906 79.0222C48.4106 79.8622 43.9306 80.7822 39.6106 82.2622C40.9439 83.1288 42.2773 83.9822 43.6373 84.8088C40.8239 84.2088 37.9573 84.0622 35.0773 84.0488L35.0639 84.0355C34.4773 83.8755 33.3173 83.5288 32.7306 83.3688C33.1306 83.0622 33.9306 82.4622 34.3306 82.1688C34.9173 81.7155 36.1039 80.8088 36.6906 80.3555C36.5039 79.6755 36.1306 78.3288 35.9439 77.6488C35.7173 77.0222 35.2773 75.7555 35.0506 75.1155C35.3973 74.1422 36.0639 72.1955 36.3973 71.2222C37.1039 69.1688 37.8373 67.1422 38.5039 65.0755C39.9039 65.2088 41.3173 65.3288 42.7306 65.4622C44.0506 61.0888 45.4639 56.7422 46.8639 52.3822C46.1306 52.4888 44.6639 52.6888 43.9306 52.7955C45.1839 48.8755 46.7573 45.0755 48.3573 41.2888Z" fill="#89B6F4"/>
<path d="M66.2238 41.3155C68.8105 41.5689 71.4238 41.7022 74.0372 41.7822C76.2772 41.8622 78.5172 41.9422 80.7572 42.1289C77.8638 46.5955 77.0638 51.9955 74.8238 56.7822C72.0372 55.5955 69.0772 54.9955 66.0772 54.6222C64.6372 59.3022 62.4772 63.7955 61.7972 68.6755C64.6372 71.3022 65.1972 66.4755 66.6772 65.0489C68.4772 64.6622 70.2772 64.2889 72.0772 63.9022C71.5972 66.9955 71.0638 70.0755 70.5172 73.1422C67.7972 74.4755 65.0105 75.7022 62.1172 76.6489C59.0772 77.5822 55.9972 78.3422 52.8905 79.0222C54.9038 75.5689 56.3572 71.8355 57.3705 67.9822C60.6638 63.9155 62.4772 58.9022 62.9838 53.7289C63.4372 49.4489 64.7972 45.3555 66.2238 41.3155Z" fill="#76A8F1"/>
<path d="M74.8239 56.7822C77.0639 51.9955 77.8639 46.5955 80.7572 42.1288C84.7972 42.5955 88.8372 43.1155 92.8905 43.5022C94.1039 50.5022 89.8105 56.8622 88.1439 63.4622C87.8905 62.7555 87.4105 61.3288 87.1572 60.6222C82.1972 65.5288 77.1572 70.5688 70.5172 73.1422C71.0639 70.0755 71.5972 66.9955 72.0772 63.9022C72.9839 61.5288 73.8905 59.1422 74.8239 56.7822Z" fill="#679EEE"/>
<path d="M143.344 51.4089C142.437 48.4889 147.17 46.9155 147.704 50.1689C148.544 52.2622 146.157 52.7289 145.784 50.7555C145.09 51.0489 143.944 53.5422 143.344 51.4089Z" fill="#8A81B9"/>
<path d="M21.4372 50.3555C22.1172 50.1422 23.4772 49.7288 24.1572 49.5288C22.9706 53.8088 22.2906 58.4488 19.7972 62.1955L17.6772 62.2488C18.8906 58.2755 20.0639 54.2755 21.4372 50.3555Z" fill="#473480"/>
<path d="M69.1839 58.0755C71.2239 58.3289 70.1572 61.4755 68.5439 61.5822C66.5439 61.3689 67.5972 58.1689 69.1839 58.0755Z" fill="#698CD7"/>
<path d="M70.5173 73.1422C77.1573 70.5689 82.1972 65.5289 87.1572 60.6222C87.4106 61.3289 87.8906 62.7555 88.1439 63.4622C87.1706 66.5555 86.1039 69.6222 85.1306 72.7155C83.9439 76.1022 83.3573 79.9555 80.6506 82.5555C75.0106 83.6889 69.4506 85.1955 63.8772 86.5689C62.0906 86.2355 60.3173 85.8755 58.5573 85.5022C59.6506 82.5155 60.8372 79.5689 62.1172 76.6489C65.0106 75.7022 67.7973 74.4755 70.5173 73.1422Z" fill="#5B87DB"/>
<path d="M80.5706 84.1022C80.6372 86.8622 80.0506 89.8888 77.6772 91.6355C75.4506 92.5288 73.0506 91.6222 70.7706 91.4222C74.3439 89.4355 77.9039 87.2622 80.5706 84.1022Z" fill="#5B87DB"/>
<path d="M108.317 71.7155C114.531 68.0089 120.797 64.3555 127.184 60.9155C127.584 63.6889 128.157 66.4355 128.891 69.1555C128.957 76.9555 128.411 84.7289 128.157 92.5289C126.797 91.7822 125.437 91.0489 124.077 90.3155C123.291 91.6489 122.517 92.9689 121.744 94.3022C121.304 94.0489 120.437 93.5289 119.997 93.2755C116.264 95.5955 112.477 97.8222 108.704 100.102C103.931 100.036 99.1438 100.009 94.3572 100.049C90.0372 100.049 85.7172 100.062 81.3972 100.316C79.5438 100.596 76.7039 99.8489 76.1972 102.329C74.3972 106.036 77.1305 110.089 81.1705 110.076C83.2238 110.636 85.2638 111.196 87.3172 111.756C84.7305 113.742 80.6238 115.329 81.5438 119.329C77.3572 119.089 73.1572 118.996 68.9572 118.809C63.9439 117.862 59.1972 119.476 56.0638 123.556C56.6772 114.236 56.7972 104.889 57.0505 95.5555C61.8239 94.9422 66.5039 93.6489 70.7705 91.4222C73.0505 91.6222 75.4505 92.5289 77.6772 91.6355C80.0505 89.8889 80.6372 86.8622 80.5705 84.1022L80.6505 82.5555C83.3572 79.9555 83.9438 76.1022 85.1305 72.7155C92.7172 75.1955 100.664 72.5422 108.317 71.7155Z" fill="#DFEEE0"/>
<path d="M0.503916 60.3422C4.43725 65.5555 7.58392 71.2889 11.0772 76.7955L11.5972 77.6222C12.0106 78.2889 12.8239 79.6222 13.2372 80.2889C17.6239 81.4222 22.1039 82.2222 26.6373 82.3422C27.2239 87.2089 32.2239 86.0355 35.0639 84.0355L35.0773 84.0489C41.0906 86.8889 47.8773 86.5422 54.3306 87.1555C57.5173 87.4089 60.7439 87.2622 63.8773 86.5689C69.4506 85.1955 75.0106 83.6889 80.6506 82.5555L80.5706 84.1022C77.9039 87.2622 74.3439 89.4355 70.7706 91.4222C66.5039 93.6489 61.8239 94.9422 57.0506 95.5555C56.6106 95.6355 55.7173 95.7822 55.2773 95.8489C50.1173 96.6355 45.0372 97.8489 40.0106 99.2222C39.8772 99.6222 39.5973 100.422 39.4639 100.822C34.3839 106.649 36.9573 115.262 32.4106 121.316C28.7306 126.596 22.2239 128.462 16.6639 131.076C13.3306 130.049 10.2239 128.409 7.49058 126.236C8.87725 126.489 10.2639 126.742 11.6639 126.982C9.74392 118.382 10.3973 109.582 11.2773 100.902C11.8906 98.6089 12.5972 96.3422 13.2906 94.0755C12.5039 93.6622 10.9573 92.8622 10.1839 92.4622C6.39725 90.6622 3.35725 87.3822 2.05058 83.3822C-0.549418 76.0089 -0.189418 68.0089 0.503916 60.3422Z" fill="#F8B21B"/>
<path d="M32.7172 68.4889C33.9439 69.4089 35.1705 70.3022 36.3972 71.2222C36.0639 72.1955 35.3972 74.1422 35.0505 75.1155C31.2372 74.2222 33.1839 79.9155 35.9439 77.6489C36.1305 78.3289 36.5039 79.6755 36.6905 80.3555C36.1039 80.8089 34.9172 81.7155 34.3305 82.1689C34.2905 81.2755 34.2105 79.5022 34.1839 78.6222C33.0772 79.5555 31.9705 80.4755 30.8639 81.3955C30.5705 81.4755 29.9839 81.6222 29.6905 81.6889C27.9439 80.4355 26.2639 79.1022 24.5839 77.7822C26.9305 74.2889 31.5172 72.8089 32.7172 68.4889Z" fill="#2B3E6D"/>
<path d="M35.9439 77.6488C33.1839 79.9155 31.2372 74.2222 35.0505 75.1155C35.2772 75.7555 35.7172 77.0222 35.9439 77.6488Z" fill="#DD8DA4"/>
<path d="M52.8906 79.0222C55.9973 78.3422 59.0773 77.5822 62.1173 76.6489C60.8373 79.5689 59.6506 82.5155 58.5573 85.5022C60.3173 85.8755 62.0906 86.2355 63.8773 86.5689C60.7439 87.2622 57.5173 87.4089 54.3306 87.1555C50.7039 86.7155 47.1306 85.8622 43.6373 84.8089C42.2773 83.9822 40.9439 83.1289 39.6106 82.2622C43.9306 80.7822 48.4106 79.8622 52.8906 79.0222Z" fill="#6E95DF"/>
<path d="M30.8639 81.3955C31.9705 80.4755 33.0772 79.5555 34.1839 78.6222C34.2105 79.5022 34.2905 81.2755 34.3305 82.1689C33.9305 82.4622 33.1305 83.0622 32.7305 83.3689C30.7039 83.0089 28.6772 82.6622 26.6372 82.3422L28.1839 82.0222L29.6905 81.6889C29.9839 81.6222 30.5705 81.4755 30.8639 81.3955Z" fill="#B47C9B"/>
<path d="M26.6372 82.3422C28.6772 82.6622 30.7039 83.0089 32.7305 83.3689C33.3172 83.5289 34.4772 83.8755 35.0639 84.0355C32.2239 86.0355 27.2239 87.2089 26.6372 82.3422Z" fill="#644181"/>
<path d="M124.077 90.3155C125.437 91.0489 126.797 91.7822 128.157 92.5288C127.691 116.689 126.704 140.849 125.744 164.996C125.451 164.969 124.864 164.889 124.571 164.862C125.104 159.609 125.264 154.342 125.024 149.076C125.011 146.809 125.037 144.542 125.091 142.276C125.211 137.689 125.624 133.089 125.224 128.516C124.971 124.969 121.997 121.902 118.517 121.329C108.797 119.982 98.9305 121.249 89.1839 120.049C86.6372 119.796 84.1039 119.516 81.5439 119.329C80.6239 115.329 84.7305 113.742 87.3172 111.756C85.2639 111.196 83.2239 110.636 81.1705 110.076C85.3705 110.142 89.5705 110.129 93.7572 110.222C98.4639 110.156 103.317 111.396 107.944 110.289C111.931 108.142 110.624 103.222 108.704 100.102C112.477 97.8222 116.264 95.5955 119.997 93.2755C120.437 93.5289 121.304 94.0489 121.744 94.3022C122.517 92.9689 123.291 91.6489 124.077 90.3155Z" fill="#D8EAE6"/>
<path d="M55.2772 95.8488C55.7172 95.7822 56.6106 95.6355 57.0506 95.5555C56.7972 104.889 56.6772 114.236 56.0639 123.556C55.9172 126.196 55.7972 128.849 55.7839 131.502C55.5306 139.836 55.4239 148.182 54.9572 156.516C54.4906 156.489 53.5572 156.436 53.0906 156.409C54.5572 136.249 53.9839 116.009 55.2772 95.8488Z" fill="#503E85"/>
<path d="M10.0239 101.689C10.3306 101.489 10.9573 101.102 11.2773 100.902C10.3973 109.582 9.74392 118.382 11.6639 126.982C10.2639 126.742 8.87725 126.489 7.49059 126.236L6.97059 125.862L5.85059 125.062C6.06392 123.222 6.30392 121.382 6.57058 119.542C7.54392 113.556 8.91725 107.649 10.0239 101.689Z" fill="#F9C149"/>
<path d="M76.1972 102.329C76.7039 99.8489 79.5439 100.596 81.3972 100.316C82.8372 102.209 84.9839 103.102 87.1705 103.836C86.8105 105.209 86.4372 106.582 86.0639 107.956C84.1972 108.089 82.1572 108.116 81.1705 110.076C77.1305 110.089 74.3972 106.036 76.1972 102.329Z" fill="#B3D5FA"/>
<path d="M81.3972 100.316C85.7172 100.062 90.0372 100.049 94.3572 100.049C94.4905 101.222 94.6105 102.396 94.7572 103.556C98.2372 104.076 104.757 102.102 105.331 106.969C101.504 107.569 95.6639 105.769 93.7572 110.222C89.5705 110.129 85.3705 110.142 81.1705 110.076C82.1572 108.116 84.1972 108.089 86.0639 107.956C86.4372 106.582 86.8105 105.209 87.1705 103.836C84.9839 103.102 82.8372 102.209 81.3972 100.316Z" fill="#9FC5F6"/>
<path d="M94.3572 100.049C99.1439 100.009 103.931 100.036 108.704 100.102C110.624 103.222 111.931 108.142 107.944 110.289C103.317 111.396 98.4639 110.156 93.7572 110.222C95.6639 105.769 101.504 107.569 105.331 106.969C104.757 102.102 98.2372 104.076 94.7572 103.556C94.6105 102.396 94.4905 101.222 94.3572 100.049Z" fill="#689EEF"/>
<path d="M32.4105 121.316C36.9571 115.262 34.3838 106.649 39.4638 100.822C40.2772 109.742 38.8505 118.649 37.2772 127.396C30.7838 130.262 23.7838 131.729 16.6638 131.076C22.2238 128.462 28.7305 126.596 32.4105 121.316Z" fill="#CB9316"/>
<path d="M56.0639 123.556C59.1973 119.476 63.9439 117.862 68.9573 118.809C68.9439 123.289 68.4639 127.809 69.1306 132.262C69.6106 134.022 71.8639 134.276 73.1839 135.209C69.5306 135.542 63.2106 132.342 61.8239 137.409C64.6373 137.876 67.4373 138.369 70.2773 138.689C69.8506 139.516 68.9839 141.156 68.5573 141.982C66.4373 141.929 64.3039 141.969 62.1839 142.009C62.2506 142.822 62.3706 144.449 62.4239 145.262C66.9306 145.436 71.4239 145.969 75.8906 146.556C73.6906 146.822 71.4906 147.142 69.2906 147.462C69.0506 150.289 68.8373 153.129 68.4639 155.942C67.8506 156.329 66.6373 157.089 66.0239 157.462C62.9306 157.156 59.8373 156.836 56.7306 156.622C56.7039 148.262 58.6906 139.582 55.7839 131.502C55.7973 128.849 55.9173 126.196 56.0639 123.556Z" fill="#B5D6FB"/>
<path d="M68.9573 118.809C73.1573 118.996 77.3572 119.089 81.5439 119.329C84.1039 119.516 86.6373 119.796 89.1839 120.049C87.0106 120.342 84.8506 120.689 82.6772 121.049C81.8372 125.649 81.5306 130.316 81.7839 134.996C80.2906 135.929 78.9839 137.089 78.0506 138.582C79.9439 139.116 81.8506 139.662 83.7706 140.116C83.1306 140.262 81.8506 140.556 81.2106 140.702C81.4639 141.342 81.9572 142.622 82.2106 143.262C77.6506 142.902 73.1173 142.356 68.5573 141.982C68.9839 141.156 69.8506 139.516 70.2773 138.689C72.4106 138.876 74.5439 138.996 76.6906 139.129C76.6639 138.262 76.6373 136.529 76.6106 135.662C75.7573 135.542 74.0373 135.316 73.1839 135.209C71.8639 134.276 69.6106 134.022 69.1306 132.262C68.4639 127.809 68.9439 123.289 68.9573 118.809Z" fill="#A3C9F8"/>
<path d="M82.6772 121.049C84.8506 120.689 87.0106 120.342 89.1839 120.049C98.9306 121.249 108.797 119.982 118.517 121.329C116.811 121.649 115.117 121.996 113.424 122.356C113.171 123.129 112.651 124.649 112.384 125.409C110.117 123.876 108.104 120.622 104.971 121.876C105.677 126.222 109.637 129.036 112.104 132.436C113.904 134.689 115.704 136.942 117.517 139.196C105.664 137.342 93.4639 137.982 81.7839 134.996C81.5306 130.316 81.8372 125.649 82.6772 121.049ZM104.997 130.209C102.957 134.222 109.397 130.396 104.997 130.209V130.209Z" fill="#90BBF3"/>
<path d="M104.971 121.876C108.104 120.622 110.117 123.876 112.384 125.409C112.651 124.649 113.171 123.129 113.424 122.356C115.117 121.996 116.811 121.649 118.517 121.329C121.997 121.902 124.971 124.969 125.224 128.516C125.624 133.089 125.211 137.689 125.091 142.276C121.664 138.996 119.157 134.809 115.424 131.849C114.584 131.996 112.931 132.289 112.104 132.436C109.637 129.036 105.677 126.222 104.971 121.876Z" fill="#81AFED"/>
<path d="M6.9706 125.862L7.4906 126.236C10.2239 128.409 13.3306 130.049 16.6639 131.076C17.3173 133.302 17.9573 135.516 18.6106 137.742C13.7973 140.622 9.50393 136.702 6.02393 133.689C6.34393 131.076 6.66393 128.476 6.9706 125.862Z" fill="#3B266C"/>
<path d="M16.6638 131.076C23.7838 131.729 30.7838 130.262 37.2772 127.396C37.7038 130.409 38.4505 133.356 38.9572 136.356C38.5972 137.596 38.2505 138.822 37.8771 140.062C36.1705 138.422 34.5705 134.822 31.8105 136.902C27.7038 139.262 23.0372 138.209 18.6105 137.742C17.9572 135.516 17.3172 133.302 16.6638 131.076Z" fill="#462C75"/>
<path d="M104.997 130.209C102.957 134.222 109.397 130.395 104.997 130.209V130.209Z" fill="#C7DCF5"/>
<path d="M112.104 132.436C112.931 132.289 114.584 131.996 115.424 131.849C119.157 134.809 121.664 138.996 125.091 142.276C125.037 144.542 125.011 146.809 125.024 149.076C122.237 146.009 119.904 142.582 117.517 139.196C115.704 136.942 113.904 134.689 112.104 132.436Z" fill="#6AA0ED"/>
<path d="M54.9573 156.516C55.4239 148.182 55.5306 139.836 55.7839 131.502C58.6906 139.582 56.7039 148.262 56.7306 156.622L54.9573 156.516Z" fill="#D1E5E9"/>
<path d="M6.02389 133.689C9.50389 136.702 13.7972 140.622 18.6106 137.742C19.7172 141.609 20.7439 145.489 21.6639 149.409C19.1972 159.516 16.0906 169.556 11.7572 179.036C11.9706 180.822 12.1706 182.609 12.3572 184.396C9.30389 183.862 9.26389 180.742 9.70389 178.329C4.86389 163.969 5.29056 148.622 6.02389 133.689Z" fill="#482E82"/>
<path d="M61.8239 137.409C63.2105 132.342 69.5305 135.542 73.1839 135.209C74.0372 135.316 75.7572 135.542 76.6105 135.662C76.6372 136.529 76.6639 138.262 76.6905 139.129C74.5439 138.996 72.4105 138.876 70.2772 138.689C67.4372 138.369 64.6372 137.876 61.8239 137.409Z" fill="#DBEAFD"/>
<path d="M78.0505 138.582C78.9839 137.089 80.2905 135.929 81.7839 134.996C93.4639 137.982 105.664 137.342 117.517 139.196C117.024 139.982 116.051 141.556 115.557 142.329C110.264 142.596 105.024 141.569 99.7705 141.182C94.4639 140.502 89.1172 140.089 83.7705 140.116C81.8505 139.662 79.9439 139.116 78.0505 138.582Z" fill="#CFE1FA"/>
<path d="M143.25 136.902C144.01 136.476 145.544 135.649 146.304 135.222C147.024 135.622 148.464 136.409 149.184 136.796C147.624 139.356 144.89 139.369 143.25 136.902Z" fill="#BCC9E3"/>
<path d="M18.6106 137.742C23.0373 138.209 27.7039 139.262 31.8106 136.902C34.5706 134.822 36.1706 138.422 37.8773 140.062C38.2506 138.822 38.5973 137.596 38.9573 136.356C40.5039 146.876 39.7439 157.582 39.0239 168.142C37.9306 172.782 39.3573 178.902 35.5573 182.276C29.8106 171.849 26.1306 160.422 21.6639 149.409C20.7439 145.489 19.7173 141.609 18.6106 137.742Z" fill="#55358D"/>
<path d="M82.6106 155.529L83.1173 155.436C87.6906 156.849 92.2106 160.516 91.4373 165.836C91.7573 171.582 83.3306 173.276 80.5173 168.756C79.2773 165.849 79.184 162.609 78.744 159.502C80.4506 158.649 81.5173 157.036 82.6106 155.529Z" fill="#55358D"/>
<path d="M117.517 139.196C119.904 142.582 122.237 146.009 125.024 149.076C125.264 154.342 125.104 159.609 124.571 164.862C123.624 159.556 120.037 155.329 116.291 151.716C113.771 150.222 110.651 151.356 107.904 151.356C107.651 155.169 107.357 158.969 107.037 162.782C102.971 162.182 98.8772 161.742 94.7705 161.316C94.0905 159.942 93.4239 158.556 92.7039 157.209C93.6105 154.396 94.2372 151.502 94.4905 148.556C102.091 149.342 109.717 149.742 117.344 150.009C117.197 148.089 116.357 146.222 114.144 146.342C107.717 145.556 101.251 145.196 94.8372 144.236C94.8905 143.702 94.9705 142.622 95.0105 142.089C96.5972 141.769 98.1839 141.462 99.7705 141.182C105.024 141.569 110.264 142.596 115.557 142.329C116.051 141.556 117.024 139.982 117.517 139.196Z" fill="#7FAEF1"/>
<path d="M132.331 139.382C133.784 139.782 135.237 140.169 136.691 140.569C137.504 142.436 138.397 144.276 139.011 146.222C138.744 147.969 137.664 149.462 136.971 151.062C135.731 151.022 133.251 150.942 132.024 150.902C132.144 147.062 132.211 143.222 132.331 139.382Z" fill="#F9B244"/>
<path d="M81.2106 140.702C81.8506 140.556 83.1306 140.262 83.7706 140.116C89.1172 140.089 94.4639 140.502 99.7706 141.182C98.1839 141.462 96.5972 141.769 95.0106 142.089C94.9706 142.622 94.8906 143.702 94.8372 144.236C94.7306 145.676 94.6106 147.116 94.4906 148.556C94.2372 151.502 93.6106 154.396 92.7039 157.209C90.1039 154.569 86.5039 154.062 83.1172 155.436L82.6106 155.529C82.5039 153.316 82.4239 151.102 82.3706 148.902C85.5306 148.582 88.7172 148.329 91.8106 147.609L92.5706 147.089C92.5172 146.622 92.4239 145.702 92.3706 145.236C89.1172 144.009 85.6372 143.596 82.2106 143.262C81.9572 142.622 81.4639 141.342 81.2106 140.702Z" fill="#91BCF5"/>
<path d="M94.4905 148.556C94.6105 147.116 94.7305 145.676 94.8371 144.236C101.25 145.196 107.717 145.555 114.144 146.342C116.357 146.222 117.197 148.089 117.344 150.009C109.717 149.742 102.09 149.342 94.4905 148.556Z" fill="#C9DDF9"/>
<path d="M69.2906 147.462C71.4906 147.142 73.6906 146.822 75.8906 146.556C81.2106 146.796 86.5039 147.209 91.8106 147.609C88.7173 148.329 85.5306 148.582 82.3706 148.902C82.4239 151.102 82.5039 153.316 82.6106 155.529C81.5173 157.036 80.4506 158.649 78.7439 159.502C74.5039 158.796 70.2773 158.009 66.0239 157.462C66.6373 157.089 67.8506 156.329 68.4639 155.942C68.8373 153.129 69.0506 150.289 69.2906 147.462Z" fill="#A1C8F8"/>
<path d="M107.904 151.355C110.651 151.355 113.771 150.222 116.291 151.716C120.037 155.329 123.624 159.556 124.571 164.862C118.717 164.169 112.851 163.702 107.037 162.782C107.357 158.969 107.651 155.169 107.904 151.355Z" fill="#6CA1EF"/>
<path d="M131.157 173.889C131.504 166.236 131.651 158.556 132.024 150.902C132.491 153.036 132.971 155.182 133.437 157.316C138.131 157.796 142.904 157.556 147.264 155.596C148.011 157.116 148.637 158.662 149.184 160.262C150.837 160.676 152.477 161.076 154.144 161.476L154.771 161.622C155.597 163.582 156.544 165.502 157.811 167.249C152.184 168.529 146.491 169.422 140.824 170.489C143.464 170.956 146.104 171.396 148.757 171.769C145.384 172.129 142.077 172.889 138.891 174.076C136.357 174.622 133.717 173.996 131.157 173.889Z" fill="#FAC33F"/>
<path d="M132.024 150.902C133.251 150.942 135.731 151.022 136.971 151.062C140.117 151.289 143.251 151.809 146.357 152.409C146.584 153.209 147.037 154.809 147.264 155.596C142.904 157.556 138.131 157.796 133.437 157.316C132.971 155.182 132.491 153.036 132.024 150.902Z" fill="#F9CF3A"/>
<path d="M140.824 170.489C146.49 169.422 152.184 168.529 157.811 167.249C156.757 169.196 155.891 171.276 154.517 173.036C149.504 174.596 144.077 174.582 138.891 174.076C142.077 172.889 145.384 172.129 148.757 171.769C146.104 171.396 143.464 170.956 140.824 170.489Z" fill="#F8AC47"/>
<path d="M35.7839 182.889C37.5839 182.409 38.7972 185.516 38.7305 186.982C36.6905 187.702 34.7305 184.649 35.7839 182.889Z" fill="#455179"/>
</svg>
